<svg width="399" height="46" viewBox="0 0 399 46" fill="none" xmlns="http://www.w3.org/2000/svg">
<path d="M23.832 0.199997H37.08L59.992 45H49.048L44.696 36.552H21.592L25.944 28.04H40.344L30.424 8.712L11.864 45H0.92L23.832 0.199997ZM115.436 0.1875C115.54 0.208333 115.592 0.260417 115.592 0.34375V8.84375C115.592 8.94792 115.54 9 115.436 9H75.155C73.655 9 72.6133 9.90625 72.03 11.7188V12.5938C72.03 14.2812 73.1237 15.3438 75.3112 15.7812H101.342C105.822 15.7812 109.665 17.8021 112.874 21.8438C114.686 24.4896 115.592 27.25 115.592 30.125V30.6562C115.592 35.4688 113.353 39.5 108.874 42.75C106.353 44.25 103.915 45 101.561 45H63.53C63.4258 45 63.3737 44.9479 63.3737 44.8438V36.3438C63.3946 36.2396 63.4467 36.1875 63.53 36.1875H101.342C103.53 36.1875 105.238 34.9167 106.467 32.375C106.676 31.6667 106.78 31.0208 106.78 30.4375V30.3438C106.78 27.6979 105.353 25.8333 102.499 24.75C101.915 24.6458 101.499 24.5938 101.249 24.5938H76.2175C72.4467 24.5938 69.4362 23.5208 67.1862 21.375C64.5404 18.7708 63.2175 15.9688 63.2175 12.9688V11.9688C63.2175 7.94792 65.1967 4.5625 69.155 1.8125C71.1758 0.729167 73.1237 0.1875 74.9987 0.1875H115.436ZM171.966 0.1875C172.07 0.208333 172.122 0.260417 172.122 0.34375V8.84375C172.122 8.94792 172.07 9 171.966 9H150.466V44.8438C150.466 44.9479 150.414 45 150.31 45H141.81C141.706 45 141.654 44.9479 141.654 44.8438V9H120.154C120.05 9 119.997 8.94792 119.997 8.84375V0.34375C120.018 0.239583 120.07 0.1875 120.154 0.1875H171.966ZM217.121 0.1875C220.309 0.1875 223.277 1.66667 226.027 4.625C227.777 7.08333 228.652 9.375 228.652 11.5V13.125C228.652 16.3542 227.069 19.3438 223.902 22.0938C221.694 23.7604 219.017 24.5938 215.871 24.5938H203.809V24.6562C217.892 36.2396 226.017 43 228.184 44.9375V45H214.652C198.507 31.6667 190.267 24.8125 189.934 24.4375V15.9375C189.955 15.8333 190.007 15.7812 190.09 15.7812H215.965C217.715 15.7812 218.913 15.1562 219.559 13.9062C219.809 13.3229 219.934 12.8021 219.934 12.3438C219.934 10.7812 219.08 9.6875 217.371 9.0625C217.163 9.02083 216.955 9 216.746 9H185.34V44.8438C185.34 44.9479 185.288 45 185.184 45H176.684C176.58 45 176.527 44.9479 176.527 44.8438V0.34375C176.548 0.239583 176.6 0.1875 176.684 0.1875H217.121ZM258.557 0.59375H278.276V9.34375H257.276C253.485 9.34375 250.61 10.0417 248.651 11.4375C245.985 12.8333 243.943 15.5312 242.526 19.5312C242.214 20.8854 242.057 22.0521 242.057 23.0312C242.057 26.4271 243.328 29.6146 245.87 32.5938C247.537 34.1979 249.099 35.2604 250.557 35.7812C252.162 36.5104 254.36 36.875 257.151 36.875H278.276V45.625H258.151C253.005 45.625 249.193 45 246.714 43.75C241.172 41.3333 237.203 37.375 234.807 31.875C233.641 29.125 233.057 26.1979 233.057 23.0938C233.057 16.3854 235.714 10.6562 241.026 5.90625C244.505 3.28125 247.651 1.72917 250.464 1.25C251.901 0.8125 254.599 0.59375 258.557 0.59375ZM254.745 18.7812H278.276V27.4375H254.745V18.7812ZM296.275 0.1875L310.275 15.7812L324.306 0.1875H336.244V0.34375L316.369 22.5625C316.702 23 323.327 30.4271 336.244 44.8438V45H324.306L310.275 29.4062L296.275 45H284.337V44.9375L304.212 22.625V22.5625C291.879 8.77083 285.254 1.33333 284.337 0.25V0.1875H296.275ZM361.984 0.199997H375.232L398.145 45H387.201L382.848 36.552H359.744L364.096 28.04H378.496L368.576 8.712L350.016 45H339.072L361.984 0.199997Z" fill="black"/>
</svg>
